# xmcd
#
# Track frame offsets:
#	150
#	21075
#	36975
#	46350
#	63450
#	84900
#
# Disc length: 1395 seconds
#
# Revision: 1
# Processed by: cddbd v1.5.2PL0 Copyright (c) Steve Scherf et al.
# Submitted via: audiograbber 1.83.01
#
DISCID=45057106
DTITLE=Mary Spender - Lone Wolf (EP)
DYEAR=2019
DGENRE=Blues
TTITLE0=Wait For Me
TTITLE1=Run Your Mouth
TTITLE2=23 Hours
TTITLE3=Lone Wolf
TTITLE4=Darling, You Need Therapy
TTITLE5=I Am Not Yours
EXTD=Released 2019 Nov 1
EXTT0=
EXTT1=
EXTT2=
EXTT3=
EXTT4=
EXTT5=
PLAYORDER=
